<mxfile host="app.diagrams.net" modified="2023-06-27T15:57:12.821Z" agent="Mozilla/5.0 (Windows NT 10.0; Win64; x64) AppleWebKit/537.36 (KHTML, like Gecko) Chrome/114.0.0.0 Safari/537.36" version="21.4.0" etag="BmXP2bL3FWCtjsPBZYbt" type="github">
  <diagram name="Page-1" id="BSnzyQiB9CuGzTQ3Gs1W">
    <mxGraphModel>
      <root>
        <mxCell id="0" />
        <mxCell id="1" parent="0" />
      </root>
    </mxGraphModel>
  </diagram>
</mxfile>
